<svg width="188" height="50" viewBox="0 0 188 50" fill="none" xmlns="http://www.w3.org/2000/svg">
<path d="M60 38.5857V13.6327H70.4032C72.2711 13.6327 73.8344 13.8967 75.0932 14.4246C76.3601 14.9526 77.3103 15.6918 77.9438 16.6421C78.5853 17.5925 78.9061 18.6931 78.9061 19.944C78.9061 20.8944 78.7071 21.7432 78.3092 22.4905C77.9113 23.2297 77.3631 23.843 76.6647 24.3303C75.9662 24.8177 75.1582 25.1588 74.2405 25.3538V25.5975C75.2475 25.6462 76.1774 25.9183 77.0301 26.4138C77.891 26.9093 78.5813 27.5997 79.101 28.4851C79.6208 29.3624 79.8807 30.4021 79.8807 31.6042C79.8807 32.9445 79.5396 34.1426 78.8574 35.1986C78.1752 36.2464 77.1885 37.0749 75.8972 37.6841C74.6059 38.2852 73.0386 38.5857 71.1951 38.5857H60ZM66.03 33.7243H69.7576C71.0651 33.7243 72.0275 33.4765 72.6447 32.981C73.27 32.4856 73.5827 31.7951 73.5827 30.9097C73.5827 30.2681 73.4324 29.7157 73.132 29.2527C72.8315 28.7816 72.4051 28.4201 71.8529 28.1683C71.3006 27.9084 70.6387 27.7784 69.8672 27.7784H66.03V33.7243ZM66.03 23.8917H69.3678C70.0256 23.8917 70.6103 23.782 71.122 23.5627C71.6336 23.3434 72.0315 23.0266 72.3158 22.6124C72.6081 22.1981 72.7543 21.6986 72.7543 21.1137C72.7543 20.2771 72.4579 19.6191 71.865 19.1399C71.2722 18.6607 70.4723 18.421 69.4652 18.421H66.03V23.8917Z" fill="#11112C"/>
<path d="M91.5143 38.9391C89.5489 38.9391 87.8597 38.537 86.4466 37.7329C85.0417 36.9206 83.9575 35.7915 83.1941 34.3457C82.4388 32.8917 82.0612 31.2062 82.0612 29.2893C82.0612 27.3642 82.4388 25.6787 83.1941 24.2329C83.9575 22.7789 85.0417 21.6498 86.4466 20.8457C87.8597 20.0334 89.5489 19.6273 91.5143 19.6273C93.4796 19.6273 95.1647 20.0334 96.5697 20.8457C97.9828 21.6498 99.067 22.7789 99.8222 24.2329C100.586 25.6787 100.967 27.3642 100.967 29.2893C100.967 31.2062 100.586 32.8917 99.8222 34.3457C99.067 35.7915 97.9828 36.9206 96.5697 37.7329C95.1647 38.537 93.4796 38.9391 91.5143 38.9391ZM91.5508 34.4431C92.2655 34.4431 92.8705 34.2238 93.3659 33.7852C93.8613 33.3466 94.2389 32.7374 94.4988 31.9576C94.7668 31.1778 94.9008 30.2762 94.9008 29.2527C94.9008 28.213 94.7668 27.3033 94.4988 26.5235C94.2389 25.7437 93.8613 25.1345 93.3659 24.6958C92.8705 24.2572 92.2655 24.0379 91.5508 24.0379C90.8118 24.0379 90.1864 24.2572 89.6748 24.6958C89.1713 25.1345 88.7855 25.7437 88.5175 26.5235C88.2577 27.3033 88.1277 28.213 88.1277 29.2527C88.1277 30.2762 88.2577 31.1778 88.5175 31.9576C88.7855 32.7374 89.1713 33.3466 89.6748 33.7852C90.1864 34.2238 90.8118 34.4431 91.5508 34.4431Z" fill="#11112C"/>
<path d="M104.019 38.5857V19.8709H109.976V38.5857H104.019ZM107.003 17.69C106.167 17.69 105.448 17.4138 104.847 16.8615C104.246 16.301 103.946 15.6268 103.946 14.8389C103.946 14.0591 104.246 13.3931 104.847 12.8407C105.448 12.2802 106.167 12 107.003 12C107.848 12 108.567 12.2802 109.16 12.8407C109.761 13.3931 110.061 14.0591 110.061 14.8389C110.061 15.6268 109.761 16.301 109.16 16.8615C108.567 17.4138 107.848 17.69 107.003 17.69Z" fill="#11112C"/>
<path d="M114.328 38.5857V19.8709H117.824V22.917H118.055C118.445 21.8854 119.083 21.0812 119.968 20.5045C120.853 19.9197 121.913 19.6273 123.147 19.6273C124.398 19.6273 125.446 19.9197 126.29 20.5045C127.143 21.0894 127.772 21.8935 128.178 22.917H128.373C128.82 21.9179 129.531 21.1218 130.505 20.5289C131.48 19.9278 132.641 19.6273 133.989 19.6273C135.686 19.6273 137.071 20.1593 138.143 21.2234C139.223 22.2875 139.763 23.8917 139.763 26.0361V38.5857H136.121V26.3773C136.121 25.1101 135.776 24.1922 135.085 23.6236C134.395 23.0551 133.571 22.7708 132.613 22.7708C131.427 22.7708 130.505 23.1363 129.847 23.8673C129.189 24.5903 128.861 25.5203 128.861 26.6575V38.5857H125.23V26.1458C125.23 25.1304 124.914 24.3141 124.28 23.6968C123.647 23.0794 122.822 22.7708 121.807 22.7708C121.117 22.7708 120.479 22.9535 119.895 23.319C119.318 23.6764 118.851 24.176 118.494 24.8177C118.145 25.4594 117.97 26.2026 117.97 27.0474V38.5857H114.328Z" fill="#11112C"/>
<path d="M152.709 38.9634C150.866 38.9634 149.278 38.5695 147.946 37.7816C146.623 36.9856 145.599 35.8687 144.877 34.431C144.162 32.9851 143.805 31.2915 143.805 29.3502C143.805 27.4332 144.162 25.7437 144.877 24.2816C145.599 22.8195 146.606 21.6782 147.898 20.8579C149.197 20.0375 150.716 19.6273 152.454 19.6273C153.509 19.6273 154.533 19.8019 155.523 20.1512C156.514 20.5005 157.403 21.0487 158.191 21.796C158.979 22.5433 159.6 23.514 160.055 24.708C160.51 25.894 160.737 27.3357 160.737 29.0334V30.3249H145.863V27.5957H157.168C157.168 26.6372 156.973 25.7884 156.583 25.0492C156.193 24.3019 155.645 23.713 154.939 23.2825C154.24 22.852 153.42 22.6367 152.478 22.6367C151.455 22.6367 150.561 22.8885 149.798 23.3921C149.043 23.8876 148.458 24.5375 148.044 25.3416C147.638 26.1376 147.435 27.0027 147.435 27.9368V30.069C147.435 31.3199 147.654 32.384 148.093 33.2613C148.539 34.1385 149.16 34.8087 149.956 35.2717C150.752 35.7265 151.682 35.954 152.746 35.954C153.436 35.954 154.066 35.8565 154.634 35.6616C155.203 35.4585 155.694 35.1579 156.108 34.7599C156.522 34.3619 156.839 33.8705 157.058 33.2857L160.506 33.907C160.23 34.9224 159.734 35.8118 159.02 36.5754C158.313 37.3308 157.424 37.9197 156.352 38.3421C155.288 38.7563 154.074 38.9634 152.709 38.9634Z" fill="#11112C"/>
<path d="M168.421 13.6327V38.5857H164.778V13.6327H168.421Z" fill="#11112C"/>
<path d="M178.766 39C177.581 39 176.509 38.7807 175.55 38.3421C174.592 37.8953 173.833 37.2496 173.272 36.4048C172.72 35.56 172.444 34.5244 172.444 33.2978C172.444 32.2419 172.647 31.3727 173.053 30.6904C173.459 30.0081 174.007 29.468 174.697 29.0699C175.388 28.6719 176.159 28.3714 177.012 28.1683C177.865 27.9653 178.734 27.8109 179.619 27.7053C180.74 27.5754 181.649 27.4698 182.348 27.3885C183.046 27.2992 183.554 27.157 183.87 26.9621C184.187 26.7671 184.345 26.4504 184.345 26.0117V25.9264C184.345 24.8624 184.045 24.0379 183.444 23.4531C182.851 22.8682 181.966 22.5758 180.788 22.5758C179.562 22.5758 178.596 22.8479 177.889 23.3921C177.191 23.9283 176.707 24.5253 176.439 25.1832L173.016 24.4034C173.422 23.2662 174.015 22.3484 174.795 21.6498C175.583 20.9431 176.488 20.4314 177.511 20.1146C178.535 19.7897 179.611 19.6273 180.74 19.6273C181.487 19.6273 182.279 19.7166 183.115 19.8953C183.96 20.0659 184.747 20.3827 185.478 20.8457C186.217 21.3087 186.822 21.9707 187.293 22.8317C187.764 23.6846 188 24.7933 188 26.1579V38.5857H184.443V36.0271H184.297C184.061 36.4982 183.708 36.9612 183.237 37.4161C182.766 37.8709 182.161 38.2486 181.422 38.5492C180.683 38.8497 179.798 39 178.766 39ZM179.558 36.0758C180.565 36.0758 181.426 35.8768 182.141 35.4788C182.863 35.0808 183.412 34.5609 183.785 33.9192C184.167 33.2694 184.358 32.5749 184.358 31.8357V29.4233C184.228 29.5533 183.976 29.6751 183.602 29.7888C183.237 29.8944 182.819 29.9878 182.348 30.069C181.877 30.1421 181.418 30.2112 180.971 30.2762C180.524 30.333 180.151 30.3818 179.85 30.4224C179.144 30.5117 178.498 30.662 177.913 30.8732C177.337 31.0844 176.874 31.389 176.525 31.787C176.184 32.1769 176.013 32.6968 176.013 33.3466C176.013 34.2482 176.346 34.9305 177.012 35.3935C177.678 35.8484 178.527 36.0758 179.558 36.0758Z" fill="#11112C"/>
<path d="M25 50C38.8071 50 50 38.8071 50 25C50 11.1929 38.8071 0 25 0C11.1929 0 0 11.1929 0 25C0 38.8071 11.1929 50 25 50Z" fill="#FF7B6B"/>
<path d="M34.6784 10H26.4642H17.7928C15.7067 10.0038 14.0137 11.6888 14 13.775V36.2248C14.0137 38.311 15.7067 39.996 17.7928 39.9998H34.6892C35.1531 40.0067 35.6005 39.828 35.932 39.5034C36.2483 39.1784 36.4252 38.7427 36.4249 38.2891V11.7464C36.4229 10.7827 35.6422 10.002 34.6784 10ZM27.1856 11.4286H31.382V18.1285L29.8928 15.7535C29.8324 15.653 29.7483 15.5688 29.6478 15.5085C29.3095 15.3056 28.8707 15.4152 28.6678 15.7535L27.1856 18.1178V11.4286ZM15.4464 13.775C15.4523 12.4815 16.4994 11.4345 17.7928 11.4286H25.7571V18.7142C25.7302 19.2941 26.0943 19.8205 26.6463 19.9999C27.2749 20.1892 27.8392 19.7821 28.1749 19.2464L29.2856 17.4607L30.3963 19.2464C30.7285 19.7749 31.2927 20.1821 31.9392 19.9999C32.4886 19.8212 32.852 19.2987 32.8285 18.7214V11.4464H34.6892C34.8541 11.4484 34.9872 11.5815 34.9892 11.7464V32.4601C34.89 32.4433 34.7897 32.435 34.6892 32.4356H17.7928C16.9408 32.4353 16.1137 32.7236 15.4464 33.2534V13.775ZM34.9892 35.5177L18.5214 35.5356C18.1269 35.5356 17.8071 35.8554 17.8071 36.2498C17.8071 36.6443 18.1269 36.9641 18.5214 36.9641L34.9892 36.9463V38.2748C34.9899 38.3547 34.9592 38.4318 34.9034 38.4891C34.8461 38.5447 34.7691 38.5755 34.6892 38.5748H17.7928C16.496 38.5748 15.4446 37.5235 15.4446 36.2266C15.4446 34.9298 16.496 33.8784 17.7928 33.8784H34.6892C34.8541 33.8804 34.9872 34.0135 34.9892 34.1784V35.5177Z" fill="white"/>
</svg>
