<svg width="20" height="20" viewBox="0 0 20 20" fill="none" xmlns="http://www.w3.org/2000/svg">
<g clip-path="url(#clip0_19_406)">
<path d="M15.8356 14.1647C14.4605 14.1647 13.3418 15.2834 13.3418 16.6584C13.3418 18.0335 14.4605 19.1522 15.8356 19.1522C17.2106 19.1522 18.3293 18.0335 18.3293 16.6584C18.3293 15.2834 17.2106 14.1647 15.8356 14.1647ZM15.8356 17.6559C15.2854 17.6559 14.8381 17.2086 14.8381 16.6584C14.8381 16.1083 15.2854 15.6609 15.8356 15.6609C16.3857 15.6609 16.8331 16.1083 16.8331 16.6584C16.8331 17.2086 16.3857 17.6559 15.8356 17.6559Z" fill="#FF7B6B"/>
<path d="M19.841 4.52644C19.6994 4.34515 19.4821 4.2394 19.252 4.2394H4.618L3.94467 1.4222C3.86412 1.08556 3.56311 0.8479 3.21697 0.8479H0.748129C0.334924 0.847861 0 1.18279 0 1.59599C0 2.0092 0.334924 2.34412 0.748129 2.34412H2.62646L5.05788 12.5177C5.13843 12.8546 5.43945 13.092 5.78558 13.092H17.4315C17.7755 13.092 18.0752 12.8576 18.1577 12.5239L19.9782 5.1673C20.0333 4.9439 19.9827 4.70773 19.841 4.52644ZM16.8462 11.5958H6.37609L4.97558 5.73566H18.2961L16.8462 11.5958Z" fill="#FF7B6B"/>
<path d="M6.78307 14.1647C5.40798 14.1647 4.28931 15.2834 4.28931 16.6584C4.28931 18.0335 5.40802 19.1522 6.78307 19.1522C8.15812 19.1522 9.27684 18.0335 9.27684 16.6584C9.27684 15.2834 8.15812 14.1647 6.78307 14.1647ZM6.78307 17.6559C6.23295 17.6559 5.78557 17.2086 5.78557 16.6584C5.78557 16.1083 6.23295 15.6609 6.78307 15.6609C7.33319 15.6609 7.78058 16.1083 7.78058 16.6584C7.78058 17.2086 7.33319 17.6559 6.78307 17.6559Z" fill="#FF7B6B"/>
</g>
<defs>
<clipPath id="clip0_19_406">
<rect width="20" height="20" fill="white"/>
</clipPath>
</defs>
</svg>
